<svg width="1200" height="750" viewBox="0 0 1200 750" xmlns="http://www.w3.org/2000/svg" role="img" aria-labelledby="title desc">
  <title id="title">Góra o wschodzie słońca</title>
  <desc id="desc">Prosta ilustracja wysokich gór, nieba i słońca.</desc>
  <defs>
    <linearGradient id="sky" x1="0" x2="0" y1="0" y2="1">
      <stop offset="0%" stop-color="#8fd0ff"/>
      <stop offset="55%" stop-color="#ffd28c"/>
      <stop offset="100%" stop-color="#f5f2dd"/>
    </linearGradient>
    <linearGradient id="mountain" x1="0" x2="1">
      <stop offset="0%" stop-color="#466b77"/>
      <stop offset="100%" stop-color="#223846"/>
    </linearGradient>
  </defs>
  <rect width="1200" height="750" fill="url(#sky)"/>
  <circle cx="930" cy="190" r="88" fill="#ffcc5c"/>
  <circle cx="930" cy="190" r="130" fill="#ffcc5c" opacity="0.23"/>
  <path d="M0 590 L250 260 L460 590 Z" fill="#5b8791"/>
  <path d="M210 590 L560 145 L910 590 Z" fill="url(#mountain)"/>
  <path d="M735 590 L980 305 L1200 590 Z" fill="#385864"/>
  <path d="M560 145 L480 250 L555 220 L610 300 L680 245 Z" fill="#f8fbff" opacity="0.92"/>
  <path d="M250 260 L202 325 L255 305 L300 360 Z" fill="#f8fbff" opacity="0.78"/>
  <path d="M980 305 L930 365 L980 345 L1035 392 Z" fill="#f8fbff" opacity="0.76"/>
  <path d="M0 575 C180 535 285 620 455 580 C635 538 780 600 960 565 C1060 545 1140 555 1200 570 L1200 750 L0 750 Z" fill="#2f7d5c"/>
  <path d="M0 665 C230 620 410 690 610 646 C810 602 990 660 1200 620 L1200 750 L0 750 Z" fill="#226047"/>
</svg>
